<?xml version="1.0" encoding="UTF-8"?>
<svg id="Layer_2" data-name="Layer 2" xmlns="http://www.w3.org/2000/svg" viewBox="0 0 3304.82 1317.08">
  <defs>
    <style>
      .cls-1 {
        font-family: IndivisaDisplaySans-Regular, 'Indivisa Display Sans';
        font-size: 170.96px;
      }

      .cls-1, .cls-2 {
        fill: #063;
      }

      .cls-3 {
        letter-spacing: 0em;
      }

      .cls-4 {
        letter-spacing: -.05em;
      }

      .cls-5 {
        letter-spacing: -.02em;
      }

      .cls-6 {
        letter-spacing: -.05em;
      }

      .cls-7 {
        letter-spacing: 0em;
      }

      .cls-8 {
        letter-spacing: -.02em;
      }

      .cls-2 {
        stroke-width: 0px;
      }
    </style>
  </defs>
  <g id="Layer_1-2" data-name="Layer 1">
    <text class="cls-1" transform="translate(2503.48 1267.67)"><tspan class="cls-3" x="0" y="0">B</tspan><tspan class="cls-8" x="100.18" y="0">A</tspan><tspan class="cls-4" x="202.24" y="0">C</tspan><tspan class="cls-5" x="286.52" y="0">O</tspan><tspan class="cls-6" x="394.91" y="0">L</tspan><tspan class="cls-5" x="469.1" y="0">O</tspan><tspan class="cls-7" x="577.49" y="0">D</tspan></text>
    <path class="cls-2" d="M778.94,417.43h225.04c.16.49.32.97.48,1.46-2.05,1.37-4.02,2.88-6.16,4.08-39.21,21.99-78.51,43.84-117.62,66-8.17,4.63-17.08,5.21-25.88,6.67-44.67,7.42-89.35,14.75-134.03,22.08-2.59.42-5.22.61-8.67,1-.9-2.96-2-5.67-2.52-8.48-11.93-64.15-23.79-128.31-35.69-192.47-.57-3.06-1.37-6.07-2.06-9.1-.69-.04-1.38-.08-2.07-.12-1.57,3.19-3.3,6.32-4.69,9.58-25.57,59.67-51.11,119.36-76.64,179.05-.79,1.84-1.53,3.69-2.29,5.54-1.77,4.31-4.31,5.71-9.36,4.54-62.93-14.57-125.92-28.88-188.9-43.22-26.3-5.99-52.62-11.9-78.94-17.8-1.86-.42-3.8-.41-5.87-.62-.79,4.75,2.64,6.34,4.95,8.37,32.48,28.61,64.98,57.2,97.57,85.69,29.07,25.41,58.26,50.69,87.37,76.06,7.84,6.83,7.82,6.93,3.34,16.85-47.95,106.2-95.91,212.4-143.84,318.61-1.6,3.54-2.94,7.2-3.52,11.54,26.88-18.33,51.9-38.73,77.31-58.59,25.45-19.89,50.84-39.85,76.31-59.71,25.5-19.88,50.37-40.61,76.52-59.63.69.53,1.37,1.07,2.06,1.6-1.15,5.03-2.41,10.04-3.44,15.09-5.66,27.71-11.36,55.42-16.81,83.17-1.35,6.85-4.24,12.07-9.92,16.51-23.08,18.04-45.85,36.48-68.68,54.83-43.86,35.25-87.67,70.56-131.53,105.8-20.5,16.48-41.1,32.84-61.62,49.3-24.15,19.37-48.23,38.83-72.41,58.18-14.3,11.44-28.76,22.68-43.05,34.13-5.09,4.08-9.88,8.54-15.05,13.04-4.35-7.12-2.11-12.77.4-18.67,28.64-67.41,57.21-134.85,85.75-202.31,50.21-118.66,100.39-237.32,150.58-355.99,3.33-7.88,3.36-7.92-3.2-13.38-56.34-46.84-112.72-93.62-169.02-140.52-63.2-52.65-126.32-105.4-189.48-158.1-8.95-7.47-17.87-14.97-26.9-22.33-2.02-1.65-4.49-2.74-6.75-4.09.58-.97,1.17-1.94,1.75-2.92,2.01-.14,4.1-.72,6.01-.35,94.74,18.62,189.44,37.43,284.19,55.99,82.68,16.19,165.41,32.12,248.11,48.17,9.7,1.88,10.43,1.59,13.88-7.82,47.26-128.75,94.5-257.52,141.76-386.27.99-2.69,2.25-5.29,4.5-7.89,27.49,138.69,52.08,277.69,78.74,417.43Z"/>
    <path class="cls-2" d="M2965.84,845.22c0-14.66-1.36-29.07.24-43.15,6.34-55.99,35.65-97.34,83.96-125.12,32.4-18.63,67.39-24.23,104.13-15.72,12.81,2.97,24.6,8.44,34.59,17.14,26.65,23.23,27.44,64.13,1.84,90.9-13.83,14.47-31.39,22.19-50.32,27.17-18.46,4.86-37.3,6.8-56.39,6.45-6.57-.12-13.14-.02-19.38-.02-5.15,23.73,10.79,49.41,33.9,56.14,14.18,4.13,28.36,2.88,42.43-.71,14.98-3.82,28.87-10.14,41.64-18.88,1.65-1.13,3.13-2.72,4.94-3.33,1.6-.53,4.26-.67,5.17.26.98,1.01.86,3.54.52,5.28-.3,1.55-1.5,2.94-2.39,4.35-31.93,50.45-77.28,76.21-137.4,72.16-38.4-2.58-66.48-21.59-81.16-58.23-.85-2.13-1.85-4.21-2.83-6.42-4.76.66-5.62,4.75-7.53,7.57-12.53,18.39-27.39,34.39-46.83,45.62-19.21,11.09-39.73,15.14-61.53,9.83-18.41-4.48-29.07-16.56-32.74-34.99-2.32-11.64-1.59-23.29.86-34.73,7.04-32.88,14.34-65.69,21.72-98.49,12.36-54.86,24.87-109.69,37.31-164.53,2.16-9.55,2.16-9.6-6.42-13.66-7.22-3.42-14.62-6.5-21.7-10.17-2.7-1.4-6.5-3.88-6.72-6.17-.41-4.24,4.3-4.19,7.46-4.73,22.95-3.97,45.84-8.3,68.89-11.6,17.12-2.45,34.44-3.52,51.67-5.21,1.99-.19,3.99-.58,5.96-.47,5.23.28,7.3,2.47,6.62,7.66-.6,4.6-1.88,9.12-2.92,13.66-21.53,94.08-43.11,188.16-64.56,282.26-1.47,6.46-2.57,13.1-2.89,19.7-.4,8.25,3.56,11.58,11.78,10.44,3.55-.49,7.21-1.64,10.35-3.36,6.12-3.35,11.88-7.34,17.82-11.01,3.31-2.04,6.69-3.97,9.92-5.88ZM3064.39,783.5c11.21.75,20.3-3.08,28.85-8.2,28.72-17.22,39.21-51.81,36.45-76.95-.25-2.28-.87-4.59-1.7-6.74-2.97-7.66-8.54-11.19-16.5-9.03-4.93,1.34-10.02,3.96-13.73,7.42-4.77,4.45-8.86,9.95-12.15,15.64-13.03,22.54-18.98,47.3-21.81,72.94-.14,1.26.28,2.58.58,4.94Z"/>
    <path class="cls-2" d="M1837.6,819.1c-1.58,3.09-3.24,6.15-4.73,9.29-11.48,24.19-24.91,47.05-44.44,65.83-9.73,9.35-20.55,16.97-33.41,21.28-31.34,10.53-62.34-3.56-75.87-34.22-8.33-18.86-9.47-38.72-7.59-58.75,4-42.41,19.8-79.87,49.16-111.07,28.74-30.56,64.32-48.08,105.95-52.39,45.39-4.71,89.61,1.53,132.56,16.81,4.01,1.43,7.87,3.28,12.22,5.11-.51,2.61-.57,4.61-1.29,6.34-14.76,35.61-20.73,73.56-29.46,110.76-3.95,16.84-7.33,33.82-10.87,50.75-1.1,5.26-2.26,11.01,2.65,14.86,5.06,3.97,10.99,2.42,16.08-.22,7.06-3.66,13.75-8.04,20.57-12.18,1.99-1.2,3.71-2.93,5.8-3.85,3.22-1.43,6.14,1.09,5.41,4.51-.27,1.26-.97,2.48-1.66,3.6-14.22,23.1-32.08,42.53-56.78,54.63-17.6,8.62-36.19,11.13-55.37,6.24-17.04-4.35-27.5-15.38-31.75-32.41-3.48-13.97-1.34-27.79,1.05-41.59,1.29-7.44,2.95-14.82,4.45-22.23-.89-.36-1.78-.72-2.67-1.08ZM1768.17,822.82c.97,5.26,1.56,13.31,4.03,20.75,3.1,9.32,10.39,11.81,19.13,7.17,4.32-2.29,8.73-5.3,11.67-9.09,7.31-9.41,14.64-18.98,20.45-29.34,20.13-35.9,32.92-74.65,43.05-114.38,1.32-5.19-.26-8.04-4.51-10.64-13.12-8.03-28.94-7.4-40.9,2.78-5.76,4.91-11.25,10.55-15.45,16.8-22.97,34.2-34.23,72.35-37.48,115.95Z"/>
    <path class="cls-2" d="M2523.29,819.15c-1.55,3.12-3.16,6.21-4.64,9.36-11.51,24.58-25.21,47.67-45.2,66.46-14.18,13.34-30.16,23-50.31,23.61-26.5.8-45.1-11.49-56.84-34.77-6.41-12.71-9.34-26.47-9.34-40.54,0-63.17,23.14-115.43,74.58-153.6,27.53-20.43,59.17-30.36,93.14-31.83,41.27-1.79,81.68,3.74,120.64,18.07,3.97,1.46,7.8,3.32,11.94,5.1-.47,2.51-.5,4.19-1.09,5.64-12.93,31.26-19.1,64.35-26.33,97.15-4.22,19.16-8.53,38.3-12.64,57.48-.97,4.53-1.68,9.2-1.79,13.82-.19,8.36,3.5,11.77,11.82,10.32,4.8-.84,9.6-2.8,13.87-5.21,6.36-3.58,12.12-8.2,18.41-11.92,1.5-.89,4.35-.5,6.02.37.75.39.86,3.87.04,5.18-19.3,30.71-42.91,56.4-80.57,63.44-9.56,1.79-20.05,1.39-29.65-.41-21.79-4.09-33.96-18.62-36.09-40.71-1.5-15.47,1.63-30.48,4.76-45.48.73-3.49,1.39-6.99,2.09-10.49-.94-.35-1.88-.7-2.82-1.04ZM2454.12,819.54c.52,5.72.69,10.71,1.47,15.61,1.11,6.98,2.58,14.23,10.3,16.94,8.09,2.83,14.58-1.71,19.43-7.14,7.48-8.37,14.86-17.13,20.55-26.75,22.19-37.49,35.98-78.35,46.55-120.4,1.28-5.08-.34-8.29-4.77-10.59-13.07-6.78-26.26-8.17-38.42,1.27-6.46,5.02-12.53,11.11-17.18,17.81-23.74,34.22-34.6,72.84-37.94,113.25Z"/>
    <path class="cls-2" d="M900.07,675.64c0-3.5.2-7.41-.04-11.28-.6-9.61-.66-19.34-2.25-28.8-6.83-40.71-39.68-59.59-78.41-45.48-25.09,9.15-38.81,32.24-34.38,58.38,2.19,12.9,8.74,23.78,17.88,32.82,8.26,8.17,17.01,15.95,26.18,23.08,14.2,11.02,29.14,21.08,43.39,32.03,8.16,6.27,16.02,13.06,23.23,20.4,33.99,34.58,33.65,85.05-.57,119.79-18.87,19.16-42.43,29.49-68.1,35.64-22.15,5.31-44.69,6.7-67.42,6.48-26.67-.26-53.24-1.45-79.52-6.33-5.54-1.03-10.97-2.72-16.39-4.31-8.3-2.43-13.32-8.31-13.46-16.67-.15-8.87.42-18.01,2.49-26.6,4.72-19.65,14.38-37.05,26.22-53.43,5.74-7.94,12.15-10.71,22.42-6.74.43,4.55.71,9.74,1.46,14.86,1.64,11.16,2.48,22.58,5.51,33.37,6.95,24.7,23.73,38.57,49.48,41.18,12.81,1.3,25.29.03,37.2-5.08,33.34-14.32,44.19-53.69,21.9-82.25-7.48-9.59-16.91-17.94-26.47-25.56-14.83-11.82-30.85-22.13-45.77-33.84-10.43-8.19-20.73-16.86-29.61-26.67-35.51-39.22-30.43-90.99,11.67-123.16,19.66-15.03,42.14-24.13,66.09-29.51,45.02-10.12,89.93-8.07,134.6,2.45,5.79,1.36,11.36,3.78,16.93,5.97,7.8,3.07,11.48,9.09,10.59,17.3-.79,7.23-1.75,14.57-3.79,21.52-5.88,20.03-16.02,37.97-28.6,54.54-7.42,9.77-8.29,9.91-22.44,5.91Z"/>
    <path class="cls-2" d="M2327.14,675.88c-.72-10.71-1.03-21.33-2.26-31.85-.92-7.88-2.14-15.94-4.79-23.36-7.12-19.92-21.37-31.7-42.71-34.1-14.97-1.69-29.23.56-42.31,8.45-22.35,13.48-31.48,40.43-20.72,64.22,3.76,8.32,9.19,16.4,15.59,22.88,9.77,9.9,20.76,18.69,31.76,27.27,14.17,11.05,29.09,21.14,43.25,32.21,7.3,5.71,14,12.32,20.37,19.08,30.08,31.96,24.35,70.38,10.36,96.28-11.58,21.44-30.16,35.13-51.87,44.99-21.81,9.89-45,14.69-68.69,15.98-36.63,2-73.23.99-109.46-5.6-5.86-1.07-11.6-2.93-17.27-4.81-6.91-2.29-10.69-7.19-12.13-14.47-1.81-9.14-.29-17.93,1.81-26.65,4.82-20.05,14.58-37.68,26.41-54.44,5.82-8.24,12.3-11.66,22.92-7.24.24,2.28.47,5.15.87,8,1.85,13.14,2.59,26.58,5.88,39.35,5.46,21.17,18.58,35.97,40.94,40.47,24.58,4.95,47.37,1.53,65.45-17.37,16.79-17.56,19.06-44.32,5.1-64.47-6.17-8.9-13.98-17.07-22.39-23.93-14.94-12.19-31.24-22.72-46.34-34.72-12.73-10.11-25.71-20.31-36.59-32.28-22.11-24.31-28.74-52.87-17.34-84.34,6.33-17.48,18.74-30.46,33.8-40.96,25.18-17.55,53.65-26.47,83.68-30.49,36.99-4.96,73.77-2.74,110.09,5.79,7.39,1.74,14.54,4.73,21.59,7.63,5.74,2.36,8.36,7.03,8.61,13.41.4,10.52-1.71,20.54-5.33,30.27-6.54,17.59-15.8,33.65-26.84,48.84-5.57,7.67-11.7,10.3-21.43,5.98Z"/>
    <path class="cls-2" d="M2567.17,537.64c2.74,2.58,5.06,4.96,7.57,7.11,8.25,7.06,18.26,7.82,26.26.43,6.26-5.78,12.37-12.53,16.11-20.05,7.67-15.44,14.59-31.4,20.23-47.69,10.17-29.34,16.87-59.58,19.13-90.65.48-6.61.17-13.31-.26-19.94-.23-3.6-1.1-7.27-2.33-10.68-4.51-12.47-13.84-15.99-25.28-9.35-5.37,3.12-10.26,7.07-15.8,10.94-4.35-5.23.01-8.32,1.91-11.56,1.97-3.38,4.5-6.43,7.3-10.34-2.19-.89-3.57-1.91-4.95-1.93-9.99-.16-19.99.03-29.98-.19-5.43-.12-7.58,2.59-8.65,7.53-6,27.64-12.2,55.24-18.3,82.86-.5,2.27-.94,4.57-1.2,6.88-1.65,14.71,6.9,23.01,21.59,20.61,10.41-1.7,19.37-6.87,27.97-12.73,3.14-2.14,6.36-4.15,9.54-6.22.59.49,1.19.98,1.78,1.46-.45,2.01-.39,4.33-1.41,5.98-20.12,32.28-47.68,52.62-87.16,52.77-26.38.1-42.04-16-42.63-42.37-.33-14.58,4.13-28.25,7.08-42.2,4.54-21.48,9.53-42.87,14.24-64.31.62-2.8.72-5.72,1.18-9.6-7.8-.42-14.65-.78-21.35-1.14-2.55-6.37,2.22-8.1,5.59-10.4,17.63-11.98,35.33-23.85,53-35.78,11.87-8.01,23.69-16.1,35.59-24.07,3.24-2.17,6.41-5.13,11.82-2.13-1.78,17.99-8.33,35.53-10.7,55.28,15.1,1.3,29.65.03,44.68.84.62,2.58,1.2,4.98,1.91,7.93,1.42-.54,2.76-.71,3.67-1.43,10.6-8.39,22.13-14.72,35.66-17.03,9.43-1.6,18.61-.7,27.56,2.38,12.44,4.28,19.25,13.73,22.8,25.89,3.79,12.99,3.74,26.32,3.16,39.65-1.3,29.47-7.26,58.07-16.66,85.99-1.35,4.01-2.62,8.05-2.48,13.13,1.61-1.2,3.56-2.14,4.78-3.65,29.6-36.6,46.61-78.1,48-125.44.23-7.91-1.36-15.88-2.16-23.82-.26-2.58-.71-5.13-1.15-8.29,16.19-7.59,32.18-9.34,48.4-1.99,9.41,4.26,14.74,12.24,17.09,22.15,3.14,13.26,2.05,26.5-.93,39.59-6.18,27.1-20.67,49.52-39.65,69.36-22.81,23.84-49.49,42.48-78.53,57.77-8.27,4.35-14.32,9.85-18.82,18.19-9.21,17.1-21.11,32.34-35.94,45.05-18.91,16.22-40.34,24.68-65.49,19.07-6.33-1.41-12.88-4.08-18.07-7.88-13.61-9.98-11.63-27.35,4.29-35.99Z"/>
    <path class="cls-2" d="M1435.6,576.1c.81-3.17,1.45-5.66,2.22-8.68h162.38c3.35,5.61,1.88,9.08-3.1,11.93-7.51,4.3-14.87,8.86-22.2,13.46-8.89,5.59-14.14,13.53-16.45,23.94-19.41,87.37-39.02,174.69-58.54,262.03-.64,2.85-.98,5.77-1.56,9.27,2.86.62,5.02,1.52,7.17,1.49,20.97-.25,41.93-.8,62.9-.94,7.65-.05,13.44-3.02,18.02-8.88,8.61-11.01,17.48-21.82,25.77-33.06,10.66-14.47,21.34-28.97,31.06-44.07,5.1-7.92,10.92-11.02,20.8-8.33.33,2.01,1.15,4.52,1.08,6.99-1,35.55-7.33,70.09-20.01,103.39-3.43,9-3.49,9.09-12.88,9.09-86.58.03-173.16.02-259.74.02-1,0-2-.02-3-.01-3.49.04-6.63-.23-7.54-4.66-.84-4.14,1.45-6.14,4.52-7.9,3.76-2.15,7.51-4.31,11.22-6.54,3.99-2.4,8.01-4.78,11.88-7.37,8.39-5.63,13.56-13.35,15.78-23.34,19.46-87.35,39.05-174.68,58.57-262.02,1.75-7.83,1.67-7.94-5.06-12.03-7.64-4.64-15.38-9.11-23.32-13.8Z"/>
    <path class="cls-2" d="M2732.22,574.17c-8.28-3.92-15.46-7.34-22.65-10.74-3.61-1.71-7.36-3.17-10.81-5.16-1.54-.89-3.75-3.32-3.42-4.17.7-1.79,2.69-3.93,4.49-4.31,13.99-2.99,27.97-6.29,42.13-8.17,27.38-3.64,54.88-6.42,82.33-9.53,1.98-.22,4.01-.5,5.97-.3,4.36.44,6.76,2.93,5.97,7.4-.86,4.91-2.17,9.75-3.28,14.62-21.25,92.78-42.53,185.56-63.71,278.36-1.63,7.13-3.06,14.37-3.75,21.63-.89,9.28,3.58,13.74,12.5,11.42,7.24-1.88,14-5.86,20.72-9.4,4.09-2.16,7.59-5.41,11.58-7.81,1.15-.69,3.83-.78,4.42-.04,1.03,1.3,1.18,3.44,1.29,5.25.05.85-.82,1.77-1.35,2.62-14.45,23.39-32.6,42.88-57.83,54.94-14.21,6.79-29.19,9.07-44.74,7.54-26.29-2.59-42.61-20.18-42.69-47.57-.03-12.19,1.64-24.62,4.3-36.55,18.46-82.84,37.39-165.57,56.16-248.34.8-3.53,1.45-7.1,2.38-11.68Z"/>
    <path class="cls-2" d="M2026.4,343.37c3.65-4.15,6.61-7.59,9.66-10.95,11.4-12.6,24.39-22.68,41.68-25.72,3.26-.57,6.61-.95,9.91-.91,23.93.29,36.54,14.35,33.23,37.93-1.38,9.83-4.51,19.42-6.86,29.12-.81,3.35-1.64,6.69-2.47,10.03.62.25,1.24.5,1.85.75,1.82-3.02,3.59-6.06,5.46-9.05,8.11-12.97,15.76-26.27,24.57-38.75,5.12-7.25,11.8-13.53,18.42-19.55,3.85-3.5,8.68-6.32,13.55-8.23,18.42-7.23,32.34,3.5,30.38,23.24-1.71,17.2-7.65,32.98-16.88,47.54-1.02,1.61-2.54,2.9-4.15,4.69-3.79-1.91-7.26-3.78-10.83-5.43-17.28-7.95-32.49-4.83-45.04,9.42-10.35,11.75-16.68,25.6-20.16,40.76-3.57,15.57-6.92,31.19-10.42,46.77-1,4.48-2.17,8.93-3.31,13.61-22.2,2.2-43.63,2.54-66.67,2.21.71-5.9.85-10.44,1.83-14.79,8.19-36.36,16.56-72.68,24.8-109.03,1.1-4.86,2.22-9.8,2.51-14.74.39-6.83-3.7-10.42-10.1-8.15-10.59,3.76-20.85,7.66-23.49,21.41-2.8,14.62-13.21,24.29-25.94,31.28-18.01,9.89-37.75,12.53-57.89,13.18-5.92.19-11.86.03-17.55.03-3.93,21.8,11.35,40.48,33.23,41.84,18.03,1.12,33.99-5.12,49.07-14.27,2.26-1.37,4.54-2.73,6.89-3.95.42-.22,1.21.27,2.57.64-.14,1.38.11,3.07-.5,4.34-19.26,39.96-72.66,63.57-115.27,51.04-26.77-7.87-44.32-29.99-47.19-59.49-6.33-64.95,50.57-126.12,115.83-124.45,10.74.28,21.16,2.41,31.02,6.8,11.74,5.23,20.51,13.45,25.39,25.54.58,1.43,1.46,2.73,2.85,5.26ZM1921.36,396.95c5.38-1.04,8.97-1.37,12.31-2.45,10.5-3.4,18.76-9.96,24.97-19,8.23-11.98,11.54-25.37,10.33-39.77-1-11.88-9.86-16.08-19.68-9.28-3.21,2.23-6.17,5.2-8.39,8.42-12.45,18.02-17.24,38.5-19.54,62.09Z"/>
    <path class="cls-2" d="M621.64,1051.74v-12.14h2574.21v11.55c-.74.65-.97.9-1.24,1.08-.27.18-.57.37-.87.43-1.31.23-2.62.58-3.93.58-853.09.04-1706.18.06-2559.26.07-1.99,0-3.98-.2-5.97-.41-.63-.07-1.22-.47-2.94-1.17Z"/>
    <path class="cls-2" d="M978.32,697.12h-31.84c-1.7-6.93.82-10.56,5.48-13.69,43.36-29.15,86.65-58.4,129.91-87.69,4.42-2.99,8.81-4.51,14.87-1.42-5.44,25.3-10.91,50.75-16.67,77.51,4.73.4,8.2.92,11.67.95,13.98.1,27.96,0,41.94.07,3.56.02,7.13.35,12.06.6-1.74,8.17-3.25,15.21-4.93,23.1-3.98.19-7.53.5-11.08.51-15.64.06-31.29-.04-46.93.06-8.54.05-8.74.14-10.63,8.46-8.92,39.25-17.85,78.5-26.44,117.83-1.33,6.08-1.74,12.62-1.11,18.8,1.23,12.22,9.2,18.87,21.48,19.22,10.63.3,20.44-2.95,29.58-7.87,7.89-4.25,15.28-9.4,22.87-14.2,1.97-1.24,3.7-2.98,5.8-3.83,1.23-.5,3.45-.18,4.37.68.93.86,1.02,2.86,1.05,4.36.01.88-.76,1.81-1.28,2.66-20.01,32.86-46.27,58.29-83.92,69.9-18.03,5.56-36.51,7.7-55.18,3.82-23.06-4.79-37.84-20.5-42.12-43.8-2.44-13.31-1.78-26.48,1.15-39.62,9.25-41.53,18.48-83.07,27.69-124.61.7-3.18,1.21-6.4,2.22-11.79Z"/>
    <path class="cls-2" d="M2363.31,340.68c5.24-5.5,8.74-9.44,12.5-13.09,10.73-10.41,22.96-18.54,38-20.59,7.42-1.01,15.34-.82,22.68.6,13.66,2.65,21.95,12.34,23.95,26.08,1.81,12.44-.6,24.53-3.23,36.59-5.18,23.73-10.38,47.45-15.56,71.18-.35,1.62-.79,3.27-.83,4.91-.17,6.8,3.57,10.27,10.07,8.3,5-1.52,9.62-4.41,14.25-6.99,3.37-1.88,6.46-4.24,10.73-7.09.46,2.98,1.37,4.83.8,5.78-13.41,22.48-30.65,40.53-57.6,45.55-7.29,1.36-15.36.73-22.69-.83-14.16-3-22.21-12.93-23.78-27.28-1.28-11.75.69-23.22,3.24-34.63,5.2-23.38,10.34-46.77,15.51-70.16.29-1.3.62-2.6.78-3.92,1.26-10-3.53-13.77-13.03-10.07-3.08,1.2-5.95,2.97-8.88,4.56-8.95,4.86-17.87,9.76-26.82,14.61-1.17.63-2.43,1.08-3.68,1.55-12.7,4.77-14.72,3.7-18.41-8.97-1.86-6.38-3.66-12.84-6.37-18.87-2-4.45-4.91-8.79-8.37-12.21-6.17-6.1-16.81-6.61-24.12-2.02-7.09,4.44-9.95,12.96-7.21,21.99,2.6,8.6,8.36,15.13,14.73,21.03,6.59,6.1,13.84,11.5,20.4,17.64,7.77,7.26,15.98,14.29,22.46,22.63,18.66,24.02,12.42,55.62-13.49,71.68-12.73,7.89-26.9,11.33-41.59,13.03-20.68,2.39-41.28,2.06-61.48-3.28-6.66-1.76-13.38-4.5-19.12-8.26-13.39-8.78-14.77-24.62-3.62-36.01,6.96-7.11,15.76-10.96,25.44-12.92,5.09-1.03,8.32.94,10,5.83,2.16,6.29,4.1,12.71,6.84,18.75,2.32,5.1,5.1,10.2,8.66,14.48,7.13,8.59,19.33,10.28,27.98,4.62,8.18-5.35,10.67-16.42,5.43-26.74-2.07-4.09-4.92-8.02-8.2-11.2-6.45-6.24-13.48-11.86-20.21-17.82-7.97-7.05-16.19-13.87-23.72-21.38-7.41-7.38-12.78-16.27-14.69-26.76-3.35-18.4,2.63-33.44,17-45.2,11.92-9.76,25.99-14.87,40.86-17.65,19.86-3.72,39.78-3.44,59.5,1.29,16.27,3.9,30.31,10.67,34.89,31.25Z"/>
    <path class="cls-2" d="M3132.36,334.37c-8.01-.41-14.84-.76-21.35-1.09-1.82-5.19,1.17-6.83,4.27-8.31,4.81-2.29,9.54-4.82,14.53-6.63,5.57-2.01,8.42-5.39,9.61-11.34,9.65-48.29,59.22-88.46,109.94-91.28,12.12-.67,23.99.63,35.17,5.67,10.88,4.9,19.51,12.13,20.23,25,.74,13.22-5.77,22.94-16.84,29.67-3.35,2.04-7.13,3.35-11.23,5.24-1.91-2.39-3.53-4.36-5.1-6.39-3.87-5-7.13-10.65-11.72-14.86-5.3-4.86-11.27-9.64-17.82-12.36-12.44-5.17-22.31-.09-26.83,12.69-1.65,4.66-2.59,9.64-3.33,14.55-1.96,13.11-3.63,26.27-5.57,40.59,13.82,3.03,28.18-.39,43.05,2.25-1.32,5.57-2.44,10.27-3.79,15.99-9.74,0-19,0-28.27,0-3,0-6.01.19-8.99-.01-5.36-.36-7.68,2.27-8.77,7.31-3.78,17.56-7.87,35.06-11.81,52.59-6.63,29.56-13.14,59.14-19.88,88.67-6.27,27.44-17.34,52.4-38.29,72.09-23.49,22.08-51.37,31.53-83.31,27.85-7.73-.89-15.8-3.44-22.56-7.27-15.88-9-15.71-26.52.32-37.24,1.54.98,3.52,1.96,5.16,3.35,16.6,14.07,37.32,12.11,50.86-5.06,7.55-9.58,12.05-20.74,14.83-32.46,6.52-27.52,12.71-55.12,18.94-82.71,5.72-25.33,11.34-50.68,16.94-76.03.69-3.11.98-6.31,1.61-10.47Z"/>
    <path class="cls-2" d="M1305.37,357.79c1.11-3.7,1.25-5.33,2.02-6.58,9.14-14.96,20.23-28.14,35.59-37.07,12.8-7.44,26.44-10.68,41.22-6.75,14.94,3.98,23.33,14.36,22.29,29.92-.62,9.2-3.12,18.31-5.12,27.38-1.42,6.43-3.42,12.74-3.5,20.01,1.94-3.15,4.02-6.23,5.81-9.46,8.25-14.91,17.64-29.03,29.36-41.45,12.55-13.29,26.74-24.25,45.45-27.03,6.13-.91,12.7-.95,18.76.22,20.43,3.93,31.01,17.11,28.05,37.83-3.19,22.33-8.75,44.32-13.42,66.43-1.92,9.11-4.28,18.12-6.29,27.21-.57,2.58-.88,5.27-.89,7.91-.02,7.56,3.51,10.46,10.83,8.02,4.97-1.66,9.53-4.62,14.15-7.22,3.07-1.73,5.93-3.85,9.98-6.51.35,3,1.18,4.83.59,5.83-12.4,20.94-28.44,37.65-52.75,44.51-2.55.72-5.18,1.29-7.81,1.59-30.47,3.49-48.56-14.47-43.37-44.66,3.43-19.93,9.24-39.45,13.99-59.14,1.48-6.14,3.15-12.25,4.44-18.43.74-3.56,1.28-7.26,1.2-10.88-.19-8.48-6.01-12.24-13.46-8.08-5.11,2.86-9.77,6.98-13.76,11.33-10.64,11.62-18.35,25.24-25.46,39.24-7.81,15.36-10.63,32.14-14.38,48.67-2.85,12.58-5.68,25.16-8.69,38.46-12.6.55-24.51,1.11-36.42,1.59-6.65.27-13.31.51-19.96.62-9.99.16-11.57-1.54-9.47-10.92,6.7-29.84,13.6-59.65,20.35-89.48,2.57-11.36,5.07-22.73,7.37-34.14.85-4.2,1.8-8.84-2.56-11.87-4.21-2.92-8.48-.9-12.27,1.06-4.71,2.43-9.03,5.61-13.62,8.28-2,1.16-4.27,1.87-8.26,3.56Z"/>
    <path class="cls-2" d="M1291.18,262.76c-10.69-4.65-20.67-9-30.56-13.31-.76-5.24.5-8.42,5.93-8.41,25.64.04,51.28.11,76.91.23.93,0,1.86.61,2.74.92,2.2,4.71.84,7.56-3.98,9.29-6.89,2.47-13.58,5.48-20.49,7.88-5.53,1.92-8.34,5.09-9.67,11.16-9.44,43.24-18.98,86.47-29.33,129.5-3.32,13.81-8.14,27.48-14.09,40.38-12.72,27.57-34.86,44.01-64.62,49.77-22.16,4.29-44.36,4.01-66.37-1.47-3.22-.8-6.41-1.78-9.54-2.92-31.39-11.39-48.75-37.01-45.9-70.29,1.36-15.81,5.1-31.47,8.46-47.04,7.08-32.86,14.62-65.62,21.95-98.42,2.19-9.81,2.15-9.82-6.42-14.91-3.43-2.04-7.07-3.82-10.19-6.26-1.22-.95-1.86-3.45-1.65-5.1.13-1.02,2.28-2.24,3.69-2.53,2.25-.47,4.64-.28,6.97-.28,31.97-.01,63.94-.07,95.91.08,3.68.02,9.06-2.03,10.55,2.88,1.73,5.7-4.62,6.31-7.81,8.72-2.37,1.79-5.11,3.11-7.72,4.59-8.6,4.91-13.53,12.09-15.68,21.93-8.59,39.34-17.7,78.57-26.43,117.89-3.12,14.07-4.17,28.28-.95,42.56,4.3,19.05,16.37,30.16,35.84,32.08,19.18,1.9,35.44-4.24,48.1-19.01,10.41-12.14,16.73-26.49,20.5-41.78,7.71-31.32,14.83-62.79,22.14-94.21,3.32-14.26,6.58-28.54,9.78-42.84.78-3.48,1.24-7.04,1.94-11.12Z"/>
    <path class="cls-2" d="M2981.17,493.7c-8.54-1.24-17.24-1.82-25.6-3.84-36.33-8.79-56.52-36.46-54.62-74.18,2.63-52.52,39.12-95.89,90.43-107.12,18.57-4.06,37.1-3.24,55.23,2.65,27.84,9.04,45.19,30.6,46.93,59.64,3.56,59.53-32.28,105.83-84.56,118.81-4.83,1.2-9.78,2.06-14.72,2.69-4.28.54-8.64.52-12.96.75-.04.2-.08.41-.12.61ZM2971.27,441.79c0,4.99-.42,10.02.12,14.95.53,4.89,1.29,10,3.28,14.42,3.07,6.81,10.02,8.1,15.68,3.27,2.73-2.32,5.21-5.28,6.85-8.45,3.35-6.48,6.59-13.11,8.93-19.99,10.76-31.7,16.01-64.47,17.91-97.79.32-5.55-.48-11.36-1.88-16.76-2.99-11.56-13.06-14.04-20.8-4.86-4.41,5.23-7.96,11.55-10.53,17.93-12.57,31.17-17.66,63.93-19.54,97.28Z"/>
    <path class="cls-2" d="M1755.49,459.28c14.63-21.48,24.54-45.13,30.73-70.39,6.14-25.05,8.48-50.36,2.37-76.33,17.94-8.1,35.13-9.99,52.27-.66,10.64,5.79,14.76,15.83,15.44,27.42.69,11.9-2.48,23.05-7.34,33.78-10.58,23.4-26.21,43.35-44.5,60.91-19.41,18.63-40.24,35.77-60.32,53.72-4.57,4.08-9.43,5.51-15.49,4.84-11.17-1.24-22.39-1.96-34.22-2.94,0-6.96-.09-13.17.01-19.38.54-33.26,1.2-66.53-2.81-99.65-.71-5.89-1.99-11.87-4.06-17.41-3.59-9.64-9.84-12.02-18.94-7.45-4.41,2.22-8.23,5.59-12.4,8.31-1.97,1.29-4.12,2.29-7.5,4.13,0-3.11-.47-4.62.07-5.5,13.84-22.63,31.79-40.16,58.79-45.79,23.8-4.97,40.47,5.31,46.94,28.77,4.66,16.88,5.21,34.22,4.16,51.52-1.3,21.23-3.55,42.4-5.32,63.61-.22,2.59-.03,5.21-.03,7.82.71.23,1.42.46,2.14.69Z"/>
    <path class="cls-2" d="M1538.41,357.35c.23-2.83,0-3.97.43-4.71,13.49-22.9,31.09-40.59,58.4-46.05,8.4-1.68,16.64-1.01,24.63,1.64,13.14,4.35,20.55,14.09,20.99,27.51.36,10.84-.97,21.93-3.07,32.6-4.75,24.15-10.46,48.1-15.75,72.15-1,4.53-2.75,9.47,1.7,13,4.76,3.78,9.63,1.12,13.99-1.25,4.95-2.69,9.54-6.06,14.38-8.98,1.25-.75,2.86-.9,5.18-1.58,0,2.11.46,3.59-.07,4.48-13.01,21.83-29.64,39.64-55.57,45.19-7.86,1.68-16.66,1.38-24.59-.22-15.06-3.05-23.93-13.69-24.02-28.95-.07-11.2,1.28-22.58,3.46-33.58,4.33-21.85,9.67-43.5,14.57-65.24.37-1.62.62-3.27.85-4.92.68-4.84,2.87-10.26-2.53-13.65-4.98-3.13-9.72-.13-14.04,2.22-4.37,2.37-8.35,5.46-12.61,8.04-1.53.92-3.4,1.27-6.32,2.31Z"/>
    <path class="cls-2" d="M1189.23,919.23c-5.55-.93-11.24-1.35-16.62-2.87-24.38-6.89-37.14-30.48-29.98-54.84,9.66-32.84,50.98-53.41,82.97-41.3,19.23,7.28,29.78,26.36,26.23,47.44-5.04,29.89-30.89,50.98-62.6,51.58Z"/>
    <path class="cls-2" d="M1663.01,243.59c-1.35,4.73-2.16,9.7-4.15,14.14-8.01,17.92-30.33,29.09-49.61,25.18-14.48-2.93-23.34-13.85-22.1-28.51.46-5.45,2.21-11.16,4.79-15.99,8.69-16.27,30.48-25.82,48.53-21.95,13.67,2.93,21.85,13.04,22.55,27.13Z"/>
    <path class="cls-2" d="M2434.29,283.77c-22.35-.04-35.23-18.5-27.62-39.56,6.78-18.74,29.73-31.64,49.92-28.04,16.63,2.96,25.76,15.98,22.82,32.61-1.69,9.58-6.75,17.19-14.02,23.43-8.94,7.67-19.47,11.13-31.11,11.56Z"/>
  </g>
</svg>